<svg width="512" height="512" viewBox="0 0 512 512" fill="none" xmlns="http://www.w3.org/2000/svg">
  <rect width="512" height="512" rx="112" fill="#F0F4F5"/>
  <path d="M257 396C225 356 162 316 121 267C78 214 92 139 157 119C196 107 231 125 257 160C283 125 318 107 357 119C422 139 436 214 393 267C352 316 289 356 257 396Z" fill="#0099A8"/>
  <path d="M257 396C240 374 215 352 188 330L257 160C283 125 318 107 357 119C422 139 436 214 393 267C352 316 289 356 257 396Z" fill="#005F9E"/>
  <path d="M130 218C118 176 135 140 173 128C201 119 227 130 249 155L202 271C168 260 140 242 130 218Z" fill="#E91E8C"/>
  <path d="M312 301C346 278 381 246 389 213C399 174 379 140 341 128C314 120 289 130 266 154L312 301Z" fill="#F5A623"/>
  <circle cx="256" cy="246" r="30" fill="#F0F4F5"/>
  <path d="M206 421H306" stroke="#005F9E" stroke-width="24" stroke-linecap="round"/>
  <path d="M184 452H328" stroke="#0099A8" stroke-width="18" stroke-linecap="round"/>
</svg>
